<svg xmlns="http://www.w3.org/2000/svg" width="146.776" height="120.641" viewBox="0 0 146.776 120.641">
  <g>
    <rect width="146.776" height="120.641" style="fill: none"/>
    <g>
      <path d="M372.97079,350.9185v-5.9914a3.55354,3.55354,0,0,0-3.7545-3.7945,3.69772,3.69772,0,0,0-3.3551,1.6976,3.50632,3.50632,0,0,0-3.1555-1.6976,3.15709,3.15709,0,0,0-2.7959,1.418v-1.1783h-2.0771v9.5462h2.097v-5.2923a2.23259,2.23259,0,0,1,2.3366-2.5362c1.378,0,2.0771.8986,2.0771,2.5162v5.3123h2.097v-5.2923A2.25125,2.25125,0,0,1,368.777,343.09c1.41779,0,2.09689.8986,2.09689,2.5162v5.3123Zm11.70321-4.7732v-4.773h-2.07711v1.1583a3.62159,3.62159,0,0,0-3.0157-1.398,5.01888,5.01888,0,0,0,0,10.0257,3.62139,3.62139,0,0,0,3.0157-1.3981v1.1583H384.674Zm-7.72881,0a2.89047,2.89047,0,1,1,2.8957,3.0556A2.86354,2.86354,0,0,1,376.94519,346.1453Zm52.1715-5.0239a5.3805,5.3805,0,0,1,2.0486.3839,4.99816,4.99816,0,0,1,1.6296,1.0566,4.83745,4.83745,0,0,1,1.0766,1.5899,5.30278,5.30278,0,0,1,0,3.9871,4.83354,4.83354,0,0,1-1.0766,1.5902,4.99443,4.99443,0,0,1-1.6296,1.0564,5.65627,5.65627,0,0,1-4.0971,0,4.94,4.94,0,0,1-1.6249-1.0564,4.87929,4.87929,0,0,1-1.0716-1.5902,5.30784,5.30784,0,0,1,0-3.9871,4.88328,4.88328,0,0,1,1.0716-1.5899,4.9437,4.9437,0,0,1,1.6249-1.0566A5.38,5.38,0,0,1,429.11669,341.1214Zm0,1.9639a3.09937,3.09937,0,0,0-1.186.2243,2.80562,2.80562,0,0,0-.947.6278,2.927,2.927,0,0,0-.6281.9671,3.47314,3.47314,0,0,0,0,2.4821,2.924,2.924,0,0,0,.6281.9669,2.80464,2.80464,0,0,0,.947.628,3.24794,3.24794,0,0,0,2.3721,0,2.86167,2.86167,0,0,0,.952-.628,2.89613,2.89613,0,0,0,.63321-.9669,3.47328,3.47328,0,0,0,0-2.4821,2.899,2.899,0,0,0-.63321-.9671,2.86269,2.86269,0,0,0-.952-.6278A3.09988,3.09988,0,0,0,429.11669,343.0853Zm-33.1409,3.06c-.0199-2.9756-1.8573-5.0127-4.5334-5.0127a5.017,5.017,0,0,0,.1398,10.0256,5.8025,5.8025,0,0,0,3.9143-1.3381l-1.01849-1.5378a4.54855,4.54855,0,0,1-2.776.9985,2.65136,2.65136,0,0,1-2.856-2.3366h7.08989C395.95589,346.6846,395.97579,346.4251,395.97579,346.1453Zm-7.1097-.8387a2.45767,2.45767,0,0,1,2.5363-2.3166,2.37115,2.37115,0,0,1,2.41661,2.3166Zm15.8566-1.4977a6.15314,6.15314,0,0,0-2.9756-.8189c-1.1385,0-1.8174.4194-1.8174,1.1185,0,.6391.7189.8186,1.6177.9384l.9785.1398c2.07711.2996,3.33511,1.1783,3.33511,2.8559,0,1.8174-1.59761,3.1157-4.35361,3.1157a6.887,6.887,0,0,1-4.134-1.2385l.9785-1.6175a5.08619,5.08619,0,0,0,3.1755.9986c1.4178,0,2.1768-.4193,2.1768-1.1584,0-.5392-.5393-.8388-1.6775-.9985l-.97869-.1397c-2.13681-.2997-3.29511-1.2583-3.29511-2.8161,0-1.8973,1.5576-3.0556,3.9742-3.0556a7.138,7.138,0,0,1,3.8944.9987Zm9.9801-.5393h-3.395v4.3139c0,.9584.3395,1.5976,1.378,1.5976a3.83592,3.83592,0,0,0,1.8374-.5392l.599,1.7775a4.87991,4.87991,0,0,1-2.59619.7389c-2.45641,0-3.31511-1.3181-3.31511-3.5351v-4.3536h-1.9373v-1.8973h1.9373l-.0006-2.8957h2.0969l.0006,2.8957h3.395Zm7.188-2.137a4.43589,4.43589,0,0,1,1.478.2598l-.6391,1.9571a3.38388,3.38388,0,0,0-1.2981-.2397c-1.3581,0-2.0372.8788-2.0372,2.4564v5.3523h-2.0769v-9.5462h2.0571v1.1583a2.81526,2.81526,0,0,1,2.5162-1.398ZM436.27,349.5289a.9539.9539,0,0,1,.37619.0746.97775.97775,0,0,1,.3074.2037.95657.95657,0,0,1,.2071.3028.93363.93363,0,0,1,0,.737.96452.96452,0,0,1-.2071.3015.9964.9964,0,0,1-.3074.2048.93912.93912,0,0,1-.37619.0758.96809.96809,0,0,1-.89761-.5821.9359.9359,0,0,1,0-.737.96233.96233,0,0,1,.2062-.3028.95074.95074,0,0,1,.3085-.2037A.98158.98158,0,0,1,436.27,349.5289Zm0,1.6906a.70737.70737,0,0,0,.28659-.0582.75391.75391,0,0,0,.2327-.1583.74009.74009,0,0,0-.2327-1.205.7152.7152,0,0,0-.28659-.0572.74573.74573,0,0,0-.29221.0572.7297.7297,0,0,0-.2363.1569.74456.74456,0,0,0,0,1.0481.74452.74452,0,0,0,.52851.2165Zm.05589-1.1854a.40124.40124,0,0,1,.26211.0759.25268.25268,0,0,1,.09189.206.23989.23989,0,0,1-.0733.1803.349.349,0,0,1-.2085.0874l.2888.333h-.2258l-.2678-.3307h-.0862v.3307h-.1886v-.8826Zm-.2188.1655v.2352h.2166a.21318.21318,0,0,0,.1188-.0293.09949.09949,0,0,0,.0441-.0895.09807.09807,0,0,0-.0441-.0875.21492.21492,0,0,0-.1188-.0289Z" transform="translate(-322.61159 -245.6795)" style="fill: #fff"/>
      <g>
        <rect x="57.6379" y="22.8343" width="31.5" height="56.6064" style="fill: #7375cf"/>
        <path d="M382.24969,296.817a35.93765,35.93765,0,0,1,13.7499-28.3032,36,36,0,1,0,0,56.6064A35.9378,35.9378,0,0,1,382.24969,296.817Z" transform="translate(-322.61159 -245.6795)" style="fill: #eb001b"/>
        <path d="M450.81019,319.1248v-1.1589h.4673v-.2361h-1.1901v.2361h.4675v1.1589Zm2.3105,0v-1.3973h-.3648l-.4196.9611-.4197-.9611h-.365v1.3973h.2576v-1.054l.3935.9087h.2671l.3935-.911v1.0563Z" transform="translate(-322.61159 -245.6795)" style="fill: #00a2e5"/>
        <path d="M454.24479,296.817a35.99867,35.99867,0,0,1-58.2452,28.3032,36.00518,36.00518,0,0,0,0-56.6064,35.99867,35.99867,0,0,1,58.2452,28.3032Z" transform="translate(-322.61159 -245.6795)" style="fill: #00a2e5"/>
      </g>
    </g>
  </g>
</svg>
