<svg xmlns="http://www.w3.org/2000/svg" viewBox="0 0 72.61 45.78"><rect width="72.61" height="45.78" rx="2.69" fill="#fff"/><path d="M27.6,13.26,19.52,32.53H14.24l-4-15.38a2.12,2.12,0,0,0-1.19-1.7,21.32,21.32,0,0,0-4.92-1.63l.13-.56h8.48a2.33,2.33,0,0,1,2.3,2l2.1,11.16,5.19-13.12Zm20.65,13c0-5.09-7-5.36-7-7.64,0-.69.68-1.43,2.12-1.61a9.33,9.33,0,0,1,4.92.86l.87-4.09a13.28,13.28,0,0,0-4.66-.85c-4.93,0-8.4,2.62-8.43,6.37,0,2.77,2.47,4.32,4.37,5.24S43,26.07,43,26.92c0,1.29-1.55,1.86-3,1.89a10.59,10.59,0,0,1-5.13-1.22L34,31.81a15.13,15.13,0,0,0,5.55,1c5.24,0,8.66-2.59,8.68-6.6m13,6.29h4.61l-4-19.27H57.59a2.27,2.27,0,0,0-2.12,1.41L48,32.53h5.24l1-2.87h6.39ZM55.7,25.7l2.63-7.23,1.51,7.23Zm-21-12.44L30.6,32.53h-5l4.13-19.27Z" fill="#1a1f71"/></svg>